<?xml version="1.0" encoding="UTF-8" standalone="no"?>
<svg xmlns:dc="http://purl.org/dc/elements/1.1/" xmlns:cc="http://creativecommons.org/ns#"
  xmlns:rdf="http://www.w3.org/1999/02/22-rdf-syntax-ns#" xmlns:svg="http://www.w3.org/2000/svg"
  xmlns="http://www.w3.org/2000/svg" id="svg962" version="1.1" viewBox="0 0 66.557869 66.829506" height="66.829506mm"
  width="66.557869mm">
  <defs id="defs956" />
  <g transform="translate(-34.756782,-79.132864)">
    <path id="rect903"
      d="m 37.78304,79.132864 c -0.772944,0 -1.545586,0.29657 -2.137853,0.88884 -1.18454,1.18454 -1.18454,3.09168 0,4.27622 l 4.011123,4.01113 c -0.138234,0.52345 -0.212907,1.07315 -0.212907,1.64124 v 7.14685 c 0,3.529706 2.841481,6.371186 6.371187,6.371186 h 45.070117 c 3.529711,0 6.371191,-2.84148 6.371191,-6.371186 v -7.14685 c 0,-0.72629 -0.121791,-1.42245 -0.343649,-2.07171 l 3.514001,-3.514 c 1.18453,-1.18453 1.18453,-3.09168 0,-4.27622 -1.184543,-1.18454 -3.092213,-1.18454 -4.276753,0 l -3.68659,3.6866 c -0.50446,-0.12767 -1.03297,-0.19586 -1.5782,-0.19586 H 45.81459 c -0.70399,0 -1.379601,0.11502 -2.011761,0.32401 l -3.881416,-3.88141 c -0.59227,-0.59227 -1.365427,-0.88884 -2.138373,-0.88884 z m 18.332213,9.38702 a 5.1944765,5.1944765 0 0 1 5.194514,5.19452 5.1944765,5.1944765 0 0 1 -5.194514,5.19452 5.1944765,5.1944765 0 0 1 -5.194514,-5.19452 5.1944765,5.1944765 0 0 1 5.194514,-5.19452 z m 24.386106,0 a 5.1944765,5.1944765 0 0 1 5.19452,5.19452 5.1944765,5.1944765 0 0 1 -5.19452,5.19452 5.1944765,5.1944765 0 0 1 -5.19399,-5.19452 5.1944765,5.1944765 0 0 1 5.19399,-5.19452 z M 46.170643,106.65315 c -3.705748,0 -6.688998,2.98324 -6.688998,6.68899 v 25.93125 c 0,3.70573 2.98325,6.68898 6.688998,6.68898 h 44.358014 c 3.705752,0 6.689,-2.98325 6.689,-6.68898 v -25.93125 c 0,-3.70575 -2.983248,-6.68899 -6.689,-6.68899 z"
      style="opacity:1;fill:#ffffff;fill-opacity:1;fill-rule:nonzero;stroke:none;stroke-width:0.1009503;stroke-linecap:round;stroke-linejoin:round;stroke-miterlimit:4;stroke-dasharray:none;stroke-dashoffset:0;stroke-opacity:1" />
  </g>
</svg>