<svg width="370" height="524" viewBox="0 0 370 524" fill="none" xmlns="http://www.w3.org/2000/svg">
  <path fill-rule="evenodd" clip-rule="evenodd"
    d="M195.903 62.0376C257.634 60.854 320.383 87.6618 354.036 139.425C384.925 186.936 363.408 245.64 351.257 300.991C338.899 357.28 336.38 424.519 285.504 451.59C233.398 479.316 172.029 451.111 119.42 424.351C68.7013 398.553 19.8941 364.035 5.26481 309.044C-9.92712 251.939 9.0915 192.126 45.1957 145.347C82.0935 97.5389 135.524 63.1952 195.903 62.0376Z"
    fill="#278076" />
  <g filter="url(#filter0_d)">
    <rect x="53.0007" y="12" width="285" height="500" rx="14" fill="#444851" />
    <rect x="78.0007" y="35" width="88" height="9" rx="4.5" fill="#C4C4C4" fill-opacity="0.5" />
    <rect x="81.0007" y="89" width="45" height="45" rx="4" fill="#EEEEEE" />
    <rect x="143.001" y="89" width="45" height="45" rx="4" fill="#278076" />
    <rect x="205.001" y="89" width="45" height="45" rx="4" fill="#949494" />
    <rect x="267.001" y="89" width="45" height="45" rx="4" fill="#222222" />
    <circle cx="97.5007" cy="177.5" r="10.5" fill="#C4C4C4" />
    <circle cx="196.501" cy="177.5" r="10.5" fill="#C4C4C4" />
    <circle cx="97.5007" cy="209.5" r="10.5" fill="#C4C4C4" />
    <circle cx="196.501" cy="209.5" r="10.5" fill="#C4C4C4" />
    <circle cx="130.501" cy="177.5" r="10.5" fill="#278076" />
    <circle cx="130.501" cy="177.5" r="8.5" fill="#444851" />
    <circle cx="229.501" cy="177.5" r="10.5" fill="#C4C4C4" />
    <circle cx="295.501" cy="177.5" r="10.5" fill="#C4C4C4" />
    <circle cx="130.501" cy="209.5" r="10.5" fill="#C4C4C4" />
    <circle cx="229.501" cy="209.5" r="10.5" fill="#C4C4C4" />
    <circle cx="163.501" cy="177.5" r="10.5" fill="#C4C4C4" />
    <circle cx="262.501" cy="177.5" r="10.5" fill="#C4C4C4" />
    <circle cx="163.501" cy="209.5" r="10.5" fill="#C4C4C4" />
    <circle cx="262.501" cy="209.5" r="10.5" fill="#C4C4C4" />
    <circle cx="130.501" cy="177.5" r="6.5" fill="#278076" />
  </g>
  <defs>
    <filter id="filter0_d" x="41.0007" y="1.52588e-05" width="309" height="524" filterUnits="userSpaceOnUse"
      color-interpolation-filters="sRGB">
      <feFlood flood-opacity="0" result="BackgroundImageFix" />
      <feColorMatrix in="SourceAlpha" type="matrix" values="0 0 0 0 0 0 0 0 0 0 0 0 0 0 0 0 0 0 127 0" />
      <feOffset />
      <feGaussianBlur stdDeviation="6" />
      <feColorMatrix type="matrix" values="0 0 0 0 0 0 0 0 0 0 0 0 0 0 0 0 0 0 0.15 0" />
      <feBlend mode="normal" in2="BackgroundImageFix" result="effect1_dropShadow" />
      <feBlend mode="normal" in="SourceGraphic" in2="effect1_dropShadow" result="shape" />
    </filter>
  </defs>
</svg>