<svg width="381" height="524" viewBox="0 0 381 524" fill="none" xmlns="http://www.w3.org/2000/svg">
  <path fill-rule="evenodd" clip-rule="evenodd"
    d="M183.147 69.653C242.374 69.5927 310.099 44.0059 351.169 86.6798C394.321 131.517 380.164 201.892 369.404 263.184C357.595 330.448 348.344 406.695 289.041 440.563C226.518 476.269 142.782 467.962 84.2511 426.033C33.283 389.521 43.122 316.922 30.6703 255.474C18.8905 197.342 -22.0704 132.874 15.5543 87.0214C53.0369 41.3419 124.058 69.7131 183.147 69.653Z"
    fill="#278076" />
  <g filter="url(#filter0_d)">
    <g clip-path="url(#clip0)">
      <rect x="64" y="12" width="285" height="500" rx="14" fill="white" />
      <rect x="79" y="26" width="255" height="37" rx="11" fill="#C4C4C4" fill-opacity="0.4" />
      <rect x="79" y="72" width="255" height="82" rx="11" fill="#C4C4C4" fill-opacity="0.4" />
      <rect x="79" y="163" width="255" height="50" rx="11" fill="#C4C4C4" fill-opacity="0.4" />
      <rect x="79" y="222" width="255" height="110" rx="11" fill="#C4C4C4" fill-opacity="0.4" />
      <rect x="80" y="341" width="255" height="62" rx="11" fill="#C4C4C4" fill-opacity="0.3" />
      <path d="M80 423C80 416.925 84.9249 412 91 412H324C330.075 412 335 416.925 335 423V495H80V423Z" fill="#C4C4C4"
        fill-opacity="0.3" />
      <circle cx="314.5" cy="44.5" r="13.5" fill="#C4C4C4" fill-opacity="0.5" />
      <rect x="167" y="39" width="79" height="10" rx="5" fill="#C4C4C4" fill-opacity="0.5" />
      <g filter="url(#filter1_d)">
        <rect x="64" y="273" width="285" height="71" rx="25" fill="#278076" />
      </g>
    </g>
  </g>
  <rect x="64" y="271" width="285" height="240.443" rx="26" fill="white" />
  <rect x="144" y="299" width="74" height="8" rx="4" fill="#C4C4C4" fill-opacity="0.5" />
  <rect x="144" y="316" width="52" height="8" rx="4" fill="#C4C4C4" fill-opacity="0.5" />
  <rect x="288" y="299" width="39" height="8" rx="4" fill="#C4C4C4" fill-opacity="0.5" />
  <circle cx="107" cy="312" r="23" fill="#278076" />
  <path d="M104.719 324H101.016V301.156H113.906V304.312H104.719V311.453H113.328V314.625H104.719V324Z" fill="white" />
  <rect x="84" y="358" width="192" height="8" rx="4" fill="#C4C4C4" fill-opacity="0.5" />
  <rect x="84" y="375" width="145" height="8" rx="4" fill="#C4C4C4" fill-opacity="0.5" />
  <rect x="84" y="392" width="171" height="8" rx="4" fill="#C4C4C4" fill-opacity="0.5" />
  <rect x="84" y="409" width="108" height="8" rx="4" fill="#C4C4C4" fill-opacity="0.5" />
  <defs>
    <filter id="filter0_d" x="52" y="0" width="309" height="524" filterUnits="userSpaceOnUse"
      color-interpolation-filters="sRGB">
      <feFlood flood-opacity="0" result="BackgroundImageFix" />
      <feColorMatrix in="SourceAlpha" type="matrix" values="0 0 0 0 0 0 0 0 0 0 0 0 0 0 0 0 0 0 127 0" />
      <feOffset />
      <feGaussianBlur stdDeviation="6" />
      <feColorMatrix type="matrix" values="0 0 0 0 0 0 0 0 0 0 0 0 0 0 0 0 0 0 0.25 0" />
      <feBlend mode="normal" in2="BackgroundImageFix" result="effect1_dropShadow" />
      <feBlend mode="normal" in="SourceGraphic" in2="effect1_dropShadow" result="shape" />
    </filter>
    <filter id="filter1_d" x="50" y="263" width="313" height="99" filterUnits="userSpaceOnUse"
      color-interpolation-filters="sRGB">
      <feFlood flood-opacity="0" result="BackgroundImageFix" />
      <feColorMatrix in="SourceAlpha" type="matrix" values="0 0 0 0 0 0 0 0 0 0 0 0 0 0 0 0 0 0 127 0" />
      <feOffset dy="4" />
      <feGaussianBlur stdDeviation="7" />
      <feColorMatrix type="matrix" values="0 0 0 0 0 0 0 0 0 0 0 0 0 0 0 0 0 0 0.5 0" />
      <feBlend mode="normal" in2="BackgroundImageFix" result="effect1_dropShadow" />
      <feBlend mode="normal" in="SourceGraphic" in2="effect1_dropShadow" result="shape" />
    </filter>
    <clipPath id="clip0">
      <rect x="64" y="12" width="285" height="500" rx="14" fill="white" />
    </clipPath>
  </defs>
</svg>