<svg width="371" height="524" viewBox="0 0 371 524" fill="none" xmlns="http://www.w3.org/2000/svg">
<path fill-rule="evenodd" clip-rule="evenodd" d="M187.182 80.0911C243.807 74.384 309.179 68.0181 346.495 110.988C384.784 155.078 369.121 219.708 358.254 277.083C346.599 338.616 340.891 412.881 284.253 439.608C227.825 466.236 166.891 423.678 112.539 393.034C64.2718 365.821 12.283 334.759 1.78525 280.352C-8.43544 227.382 26.9698 179.086 63.6188 139.499C96.2829 104.216 139.342 84.9127 187.182 80.0911Z" fill="#278076"/>
<g filter="url(#filter0_d)">
<rect x="42.9995" y="12" width="285" height="500" rx="14" fill="white"/>
<rect x="254" y="30" width="46" height="19" rx="9.5" fill="#C4C4C4" fill-opacity="0.5"/>
<rect x="197" y="30" width="46" height="19" rx="9.5" fill="#C4C4C4" fill-opacity="0.5"/>
<rect x="70.9995" y="35" width="88" height="9" rx="4.5" fill="#C4C4C4" fill-opacity="0.5"/>
<rect x="70.9995" y="71" width="232" height="105" rx="11" fill="#C4C4C4" fill-opacity="0.4"/>
<path d="M86.9995 90L123.5 123.5L174 108L214.5 154L247 112.5L290.5 99.5" stroke="#278076" stroke-opacity="0.8" stroke-width="5" stroke-linecap="round" stroke-linejoin="round"/>
<rect x="67.9995" y="204" width="232" height="49" rx="11" fill="#C4C4C4" fill-opacity="0.4"/>
<rect x="67.9995" y="264" width="232" height="49" rx="11" fill="#C4C4C4" fill-opacity="0.4"/>
<rect x="67.9995" y="324" width="232" height="49" rx="11" fill="#C4C4C4" fill-opacity="0.4"/>
<rect x="67.9995" y="384" width="232" height="49" rx="11" fill="#C4C4C4" fill-opacity="0.4"/>
<rect x="67.9995" y="444" width="232" height="49" rx="11" fill="#C4C4C4" fill-opacity="0.4"/>
</g>
<defs>
<filter id="filter0_d" x="30.9995" y="0" width="309" height="524" filterUnits="userSpaceOnUse" color-interpolation-filters="sRGB">
<feFlood flood-opacity="0" result="BackgroundImageFix"/>
<feColorMatrix in="SourceAlpha" type="matrix" values="0 0 0 0 0 0 0 0 0 0 0 0 0 0 0 0 0 0 127 0"/>
<feOffset/>
<feGaussianBlur stdDeviation="6"/>
<feColorMatrix type="matrix" values="0 0 0 0 0 0 0 0 0 0 0 0 0 0 0 0 0 0 0.25 0"/>
<feBlend mode="normal" in2="BackgroundImageFix" result="effect1_dropShadow"/>
<feBlend mode="normal" in="SourceGraphic" in2="effect1_dropShadow" result="shape"/>
</filter>
</defs>
</svg>
