<svg width="381" height="524" viewBox="0 0 381 524" fill="none" xmlns="http://www.w3.org/2000/svg">
  <path fill-rule="evenodd" clip-rule="evenodd"
    d="M220.247 86.1283C277.058 95.9415 307.181 151.929 338.487 200.342C364.456 240.502 388.93 284.08 378.418 330.736C367.876 377.526 330.419 412.973 286.325 431.848C244.667 449.68 200.211 439.884 157.273 425.4C102.889 407.055 39.9526 393.64 17.0472 341.014C-10.0773 278.693 -5.74529 201.345 36.6233 148.2C78.9975 95.0472 153.263 74.5579 220.247 86.1283Z"
    fill="#278076" />
  <g filter="url(#filter0_d)">
    <g clip-path="url(#clip0)">
      <rect x="47.9995" y="12" width="285" height="500" rx="14" fill="white" />
      <rect x="80.9995" y="76" width="232" height="84" rx="11" fill="#C4C4C4" fill-opacity="0.4" />
      <rect x="80.9995" y="177" width="232" height="63" rx="11" fill="#C4C4C4" fill-opacity="0.4" />
      <rect x="77.9995" y="337" width="232" height="63" rx="11" fill="#C4C4C4" fill-opacity="0.4" />
      <rect x="80.9995" y="257" width="232" height="63" rx="11" fill="#C4C4C4" fill-opacity="0.4" />
      <rect x="80.9995" y="417" width="232" height="115" rx="11" fill="#C4C4C4" fill-opacity="0.4" />
      <circle cx="299.5" cy="44.5" r="13.5" fill="#C4C4C4" fill-opacity="0.5" />
      <rect x="69.9995" y="39" width="79" height="10" rx="5" fill="#C4C4C4" fill-opacity="0.5" />
      <rect x="69.9995" y="91" width="407" height="5.99998" rx="2.99999" transform="rotate(90 69.9995 91)"
        fill="#C4C4C4" fill-opacity="0.5" />
      <rect x="69.9995" y="91" width="179" height="5.99999" rx="3" transform="rotate(90 69.9995 91)" fill="#278076"
        fill-opacity="0.8" />
    </g>
  </g>
  <defs>
    <filter id="filter0_d" x="35.9995" y="0" width="309" height="524" filterUnits="userSpaceOnUse"
      color-interpolation-filters="sRGB">
      <feFlood flood-opacity="0" result="BackgroundImageFix" />
      <feColorMatrix in="SourceAlpha" type="matrix" values="0 0 0 0 0 0 0 0 0 0 0 0 0 0 0 0 0 0 127 0" />
      <feOffset />
      <feGaussianBlur stdDeviation="6" />
      <feColorMatrix type="matrix" values="0 0 0 0 0 0 0 0 0 0 0 0 0 0 0 0 0 0 0.25 0" />
      <feBlend mode="normal" in2="BackgroundImageFix" result="effect1_dropShadow" />
      <feBlend mode="normal" in="SourceGraphic" in2="effect1_dropShadow" result="shape" />
    </filter>
    <clipPath id="clip0">
      <rect x="47.9995" y="12" width="285" height="500" rx="14" fill="white" />
    </clipPath>
  </defs>
</svg>