<svg width="1152" height="174" viewBox="0 0 1152 174" fill="none" xmlns="http://www.w3.org/2000/svg">
  <path fill-rule="evenodd" clip-rule="evenodd"
    d="M0 0L49.2632 13.5938C94.7368 24.4688 193.263 51.6562 288 76.125C382.737 100.594 481.263 125.062 576 108.75C670.737 92.4375 769.263 32.625 864 16.3125C958.737 0 1057.26 24.4688 1102.74 38.0625L1152 51.6562V174H1102.74C1057.26 174 958.737 174 864 174C769.263 174 670.737 174 576 174C481.263 174 382.737 174 288 174C193.263 174 94.7368 174 49.2632 174H0V0Z"
    fill="#212121" />
</svg>